<svg xmlns="http://www.w3.org/2000/svg" viewBox="0 0 75 75"><title>help</title><g id="图层_2" data-name="图层 2"><g id="图层_1-2" data-name="图层 1"><rect width="75" height="75"/><text transform="translate(20.89 65.89)" style="font-size:18px;fill:#fff;font-family:Helvetica-Bold, Helvetica;font-weight:700"><tspan style="letter-spacing:-0.06998697916666667em">h</tspan><tspan x="9.74" y="0" style="letter-spacing:-0.06901041666666667em">el</tspan><tspan x="22.26" y="0">p</tspan></text><path d="M35.79,35.69h3.59v3.47H35.79Zm-2-13.5a6.31,6.31,0,0,1,3.48-.91,7.48,7.48,0,0,1,4.5,1.3,4.43,4.43,0,0,1,1.8,3.84A4.35,4.35,0,0,1,42.81,29a8.82,8.82,0,0,1-1.75,1.65l-.85.66a2.58,2.58,0,0,0-.92,1.26A5.2,5.2,0,0,0,39.13,34H35.88a9.45,9.45,0,0,1,.38-2.8,4.93,4.93,0,0,1,1.61-1.78l.87-.68a3,3,0,0,0,.69-.71,2.4,2.4,0,0,0,.48-1.45,2.78,2.78,0,0,0-.53-1.66,2.23,2.23,0,0,0-1.94-.75,2.14,2.14,0,0,0-2,.93A3.55,3.55,0,0,0,34.88,27H31.41q.15-3.42,2.39-4.85" style="fill:#fff"/><circle cx="37.5" cy="29.26" r="15.39" style="fill:none;stroke:#fff;stroke-width:4px"/></g></g></svg>