<svg xmlns="http://www.w3.org/2000/svg" viewBox="0 0 75 75"><title>资源 1</title><g id="图层_2" data-name="图层 2"><g id="图层_1-2" data-name="图层 1"><path d="M56.8,41.71h.28a.48.48,0,0,0,.28-.06.19.19,0,0,0,.07-.16.18.18,0,0,0,0-.11.21.21,0,0,0-.1-.07.76.76,0,0,0-.23,0H56.8Zm-.23.79V41.1h.5a1.25,1.25,0,0,1,.37,0,.36.36,0,0,1,.18.14.35.35,0,0,1,.07.2.37.37,0,0,1-.11.27.46.46,0,0,1-.3.13.4.4,0,0,1,.12.07,1.53,1.53,0,0,1,.21.28l.18.27H57.5l-.13-.22a1.13,1.13,0,0,0-.24-.33.31.31,0,0,0-.19,0H56.8v.59Zm.59-1.81a1.17,1.17,0,0,0-.55.14,1,1,0,0,0-.42.4,1.05,1.05,0,0,0,0,1.08,1,1,0,0,0,.42.4,1.15,1.15,0,0,0,1.12,0,1,1,0,0,0,.42-.4,1.07,1.07,0,0,0,.15-.54,1.06,1.06,0,0,0-.15-.54,1,1,0,0,0-.42-.4,1.17,1.17,0,0,0-.55-.14m0-.22a1.41,1.41,0,0,1,.66.17,1.21,1.21,0,0,1,.5.48,1.27,1.27,0,0,1,0,1.3,1.24,1.24,0,0,1-.5.48,1.39,1.39,0,0,1-1.34,0,1.24,1.24,0,0,1-.5-.48,1.27,1.27,0,0,1,0-1.3,1.22,1.22,0,0,1,.5-.48,1.41,1.41,0,0,1,.66-.17" style="fill:#fff"/><rect width="75" height="75"/><path d="M52.76,18.57a8.16,8.16,0,0,1-6.39-1.14,20.8,20.8,0,0,1-.06,7.75,9.92,9.92,0,0,1-9.82,8,8.06,8.06,0,0,0,6.44,2.18,20.51,20.51,0,0,0,13.24-6.76,18.61,18.61,0,0,0-3.41-10" style="fill:#fff"/><path d="M51.12,35a22.73,22.73,0,0,1-7.65,2.3,10,10,0,0,1-10.87-6.61,7.42,7.42,0,0,0-.18,6.59,20,20,0,0,0,10.7,10.14,19.7,19.7,0,0,0,8.82-6.19A7.45,7.45,0,0,1,51.12,35" style="fill:#fff"/><path d="M33.89,26.32a8.08,8.08,0,0,0-6.54,1.87,19.4,19.4,0,0,0-6.65,13,19.71,19.71,0,0,0,8.83,6.2,8,8,0,0,1,5.87-2.69,21.73,21.73,0,0,1-4.63-6.31,9.49,9.49,0,0,1,3.13-12" style="fill:#fff"/><path d="M25.74,27a10.27,10.27,0,0,1,12.8-.86,7.64,7.64,0,0,0-3.87-5.43,20.9,20.9,0,0,0-14.82-2.09,18.66,18.66,0,0,0-3.35,10A7.78,7.78,0,0,1,21,33.23,21.51,21.51,0,0,1,25.74,27" style="fill:#fff"/><path d="M40.15,30.38a7.7,7.7,0,0,0,4.14-5.24,19.1,19.1,0,0,0-2.54-14.27,20.34,20.34,0,0,0-10.91,0,7.57,7.57,0,0,1-3.1,5.51,22.82,22.82,0,0,1,7.59,2.46,9.55,9.55,0,0,1,4.82,11.5" style="fill:#fff"/><text transform="translate(15.39 65.89)" style="font-size:18px;fill:#fff;font-family:Helvetica-Bold, Helvetica;font-weight:700"><tspan style="letter-spacing:-0.06998697916666667em">h</tspan><tspan x="9.74" y="0" style="letter-spacing:-0.06901041666666667em">om</tspan><tspan x="34.25" y="0">e</tspan></text></g></g></svg>