<svg xmlns="http://www.w3.org/2000/svg" viewBox="0 0 75 75"><title>btn_pwr</title><g id="图层_2" data-name="图层 2"><g id="图层_1-2" data-name="图层 1"><rect width="75" height="75"/><path d="M37.65,44.93a15.76,15.76,0,0,1-7.87-29.41,2.48,2.48,0,1,1,2.48,4.29,10.8,10.8,0,1,0,10.71,0,2.48,2.48,0,1,1,2.44-4.31,15.76,15.76,0,0,1-7.75,29.48" style="fill:#fff"/><path d="M37.65,30.51A2.48,2.48,0,0,1,35.18,28V12.46a2.47,2.47,0,1,1,4.95,0V28a2.48,2.48,0,0,1-2.47,2.48" style="fill:#fff"/><text transform="translate(13.67 63.08)" style="font-size:18px;fill:#fff;font-family:Helvetica-Bold, Helvetica;font-weight:700"><tspan style="letter-spacing:-0.06998697916666667em">p</tspan><tspan x="9.74" y="0" style="letter-spacing:-0.06901041666666667em">o</tspan><tspan x="19.49" y="0" style="letter-spacing:-0.07001410590277778em">we</tspan><tspan x="40.98" y="0">r</tspan></text></g></g></svg>