<svg xmlns="http://www.w3.org/2000/svg" viewBox="0 0 75 75"><title>settings</title><g id="图层_2" data-name="图层 2"><g id="图层_1-2" data-name="图层 1"><rect width="75" height="75"/><text transform="translate(7.4 65.89)" style="font-size:18px;fill:#fff;font-family:Helvetica-Bold, Helvetica;font-weight:700"><tspan style="letter-spacing:-0.06901041666666667em">s</tspan><tspan x="8.77" y="0" style="letter-spacing:-0.06998697916666667em">e</tspan><tspan x="17.52" y="0" style="letter-spacing:-0.06901041666666667em">tt</tspan><tspan x="27.02" y="0" style="letter-spacing:-0.07001410590277778em">i</tspan><tspan x="30.76" y="0" style="letter-spacing:-0.06898328993055555em">ng</tspan><tspan x="50.27" y="0">s</tspan></text><path d="M31.23,30.22a6.27,6.27,0,0,0,12.54.08,6.27,6.27,0,0,0-12.54-.08M26.64,16.28c.82.29,1.6.55,2.36.83s1.35.55,2,.82A1.93,1.93,0,0,0,33.14,17c.48-1.19,1-2.38,1.48-3.56a1.14,1.14,0,0,1,1.23-.76,29.55,29.55,0,0,0,3.08,0,1.22,1.22,0,0,1,1.31.81Q41,15.22,41.77,17a1.89,1.89,0,0,0,2.21.9l3.62-1.47a1.12,1.12,0,0,1,1.4.3,28.35,28.35,0,0,0,2.17,2.11,1.21,1.21,0,0,1,.37,1.54c-.47,1.14-.92,2.28-1.38,3.42a1.76,1.76,0,0,0,1,2.28c1.15.44,2.29.9,3.43,1.36a1.24,1.24,0,0,1,.88,1.38,23.37,23.37,0,0,0,0,2.91,1.2,1.2,0,0,1-.83,1.3c-1,.45-2,.94-3.09,1.3a1.87,1.87,0,0,0-1.42,1.45,1.55,1.55,0,0,0,0,.83c.47,1.17,1,2.33,1.5,3.49a1.24,1.24,0,0,1-.38,1.63c-.78.67-1.5,1.4-2.21,2.14a.94.94,0,0,1-1.1.28c-1.33-.49-2.66-1-4-1.49a2,2,0,0,0-2.09.88q-.71,1.76-1.45,3.51a1.26,1.26,0,0,1-1.39.86,26.51,26.51,0,0,0-3,0,1.15,1.15,0,0,1-1.23-.76c-.54-1.21-1.08-2.42-1.61-3.63a1.93,1.93,0,0,0-2.1-.82c-1.27.53-2.55,1-3.83,1.55a1,1,0,0,1-1.15-.27c-.78-.81-1.59-1.58-2.41-2.34a1,1,0,0,1-.3-1.15q.76-1.92,1.53-3.84a1.83,1.83,0,0,0-.91-2c-1.22-.46-2.43-1-3.64-1.44a1.13,1.13,0,0,1-.8-1.24c.05-1.06,0-2.13,0-3.19a1,1,0,0,1,.62-1c1.26-.55,2.53-1.1,3.8-1.63a1.75,1.75,0,0,0,.85-2.15c-.51-1.14-1-2.29-1.48-3.44a1.17,1.17,0,0,1,.33-1.49c.82-.74,1.57-1.54,2.37-2.3a3.43,3.43,0,0,1,.6-.37" style="fill:#fff"/><path d="M31.23,30.22a6.27,6.27,0,0,0,12.54.08,6.27,6.27,0,0,0-12.54-.08ZM26.64,16.28c.82.29,1.6.55,2.36.83s1.35.55,2,.82A1.93,1.93,0,0,0,33.14,17c.48-1.19,1-2.38,1.48-3.56a1.14,1.14,0,0,1,1.23-.76,29.55,29.55,0,0,0,3.08,0,1.22,1.22,0,0,1,1.31.81Q41,15.22,41.77,17a1.89,1.89,0,0,0,2.21.9l3.62-1.47a1.12,1.12,0,0,1,1.4.3,28.35,28.35,0,0,0,2.17,2.11,1.21,1.21,0,0,1,.37,1.54c-.47,1.14-.92,2.28-1.38,3.42a1.76,1.76,0,0,0,1,2.28c1.15.44,2.29.9,3.43,1.36a1.24,1.24,0,0,1,.88,1.38,23.37,23.37,0,0,0,0,2.91,1.2,1.2,0,0,1-.83,1.3c-1,.45-2,.94-3.09,1.3a1.87,1.87,0,0,0-1.42,1.45,1.55,1.55,0,0,0,0,.83c.47,1.17,1,2.33,1.5,3.49a1.24,1.24,0,0,1-.38,1.63c-.78.67-1.5,1.4-2.21,2.14a.94.94,0,0,1-1.1.28c-1.33-.49-2.66-1-4-1.49a2,2,0,0,0-2.09.88q-.71,1.76-1.45,3.51a1.26,1.26,0,0,1-1.39.86,26.51,26.51,0,0,0-3,0,1.15,1.15,0,0,1-1.23-.76c-.54-1.21-1.08-2.42-1.61-3.63a1.93,1.93,0,0,0-2.1-.82c-1.27.53-2.55,1-3.83,1.55a1,1,0,0,1-1.15-.27c-.78-.81-1.59-1.58-2.41-2.34a1,1,0,0,1-.3-1.15q.76-1.92,1.53-3.84a1.83,1.83,0,0,0-.91-2c-1.22-.46-2.43-1-3.64-1.44a1.13,1.13,0,0,1-.8-1.24c.05-1.06,0-2.13,0-3.19a1,1,0,0,1,.62-1c1.26-.55,2.53-1.1,3.8-1.63a1.75,1.75,0,0,0,.85-2.15c-.51-1.14-1-2.29-1.48-3.44a1.17,1.17,0,0,1,.33-1.49c.82-.74,1.57-1.54,2.37-2.3A3.43,3.43,0,0,1,26.64,16.28Z" style="fill:none;stroke:#fff;stroke-miterlimit:10;stroke-width:0.1080000028014183px"/></g></g></svg>