<svg id="图层_1" data-name="图层 1" xmlns="http://www.w3.org/2000/svg" xmlns:xlink="http://www.w3.org/1999/xlink" viewBox="0 0 480 310"><defs><linearGradient id="未命名的渐变" y1="713.49" x2="1" y2="713.49" gradientTransform="matrix(0, -211.85, -211.85, 0, 151390.58, 221.85)" gradientUnits="userSpaceOnUse"><stop offset="0" stop-color="#fff"/><stop offset="0.23" stop-color="#fff"/><stop offset="0.75"/><stop offset="0.96"/><stop offset="1"/></linearGradient><clipPath id="clip-path"><rect y="-85" width="480" height="800" style="fill:none"/></clipPath><clipPath id="clip-path-3"><rect x="-81" y="9" width="642" height="213.85" style="fill:none"/></clipPath><mask id="mask" x="-81" y="9" width="642" height="213.85" maskUnits="userSpaceOnUse"><rect x="-81" y="9" width="642" height="213.85" style="fill:url(#未命名的渐变)"/></mask><clipPath id="clip-path-5"><rect x="212.45" y="252.45" width="55.1" height="20.05" style="fill:none"/></clipPath><clipPath id="clip-path-6"><rect x="90.41" y="94.8" width="288" height="38.4" style="fill:none"/></clipPath></defs><title>mode1_page4</title><g style="clip-path:url(#clip-path)"><rect width="480" height="307.67" style="fill:#dfe1df"/><g style="clip-path:url(#clip-path)"><g style="opacity:0.3000029921531677"><g style="clip-path:url(#clip-path-3)"><g style="mask:url(#mask)"><g style="clip-path:url(#clip-path-3)"><polygon points="240 221.85 560 10 -80 10 240 221.85" style="fill:red"/></g></g></g></g><g style="opacity:0.5"><g style="clip-path:url(#clip-path-5)"><path d="M240,271.5c14.66,0,26.55-4,26.55-9s-11.89-9-26.55-9-26.55,4-26.55,9,11.89,9,26.55,9" style="fill:#807f83"/></g></g><path d="M251.55,261.62a.13.13,0,0,0,0-.19v-.68a4.22,4.22,0,0,1,.57-1c.11-.1.05-.18-.07-.21a.52.52,0,0,0-.37,0c-.43.19-.64,0-.71-.42a.57.57,0,0,0-.07-.15,6.45,6.45,0,0,0-.25-1.57c-.34-.95-.62-1.92-.92-2.88.11-.06.18-.15.13-.28a4.16,4.16,0,0,0-.43-1.1c-.86-2.55-1.66-5.13-2.52-7.68-.49-1.45-.95-2.91-1.4-4.36-.82-2.59-1.68-5.16-2.53-7.74a2.32,2.32,0,0,0-.46-1.35,1.12,1.12,0,0,1-.35-1c0-.3-.1-.46-.39-.48a13.57,13.57,0,0,0-3.32,0c-.41,0-.58.11-.45.53l0,.16c-.11.3-.06.67-.46.81,0,0,0,.13-.07.2-.17.45-.26.93-.41,1.39-.43,1.32-.91,2.62-1.35,3.93q-2.11,6.18-4.21,12.35a18.09,18.09,0,0,1-.78,2.18c-.21,0-.2.16-.24.29s-.15.52-.23.77c0,.1,0,.26-.21.18-.44-.2-.35.13-.29.33a1.18,1.18,0,0,0,.47.75c-.43,1.43-1.19,2.76-1.2,4.3-.14.38-.34.65-.8.41a.29.29,0,0,0-.17,0c-.2,0-.33.05-.14.31a1.85,1.85,0,0,1,.44,1.34c-.06.45-.07.91-.09,1.37,0,.16-.06.34.15.48a20.58,20.58,0,0,0,1.57-4,17.87,17.87,0,0,0,1.74-4.4.5.5,0,0,0,.41-.36c.13-.34.15-.71.53-1a.54.54,0,0,0,.08-.76,6.59,6.59,0,0,1,.47-1.51q2.47-7.16,5-14.32c0-.12,0-.29.26-.33,0,.79,0,1.56,0,2.33-.06,2,0,4-.08,6.06-.08,3.29-.08,6.59-.11,9.88,0,.15,0,.32.07.45q0,.76,0,1.51a.16.16,0,0,0,.16.2c.42,0,.39.25.38.53,0,1.38,0,2.77,0,4.15a2.84,2.84,0,0,0,.39,1.54,1.15,1.15,0,0,0-.08.46,15.52,15.52,0,0,0,.57,5.33c.05.18,0,.41.17.54a.25.25,0,0,0,.15-.2c.19-.86.44-1.72.57-2.59a14,14,0,0,0,0-3.53,2.64,2.64,0,0,0,.4-1.41c0-1.46,0-2.92,0-4.38,0-.17-.07-.39.2-.44.62,0,.64,0,.73-.56,0-.24.14-.2.29-.12s.26.1.35,0a.34.34,0,0,0,0-.37c-.08-.14-.23-.11-.34-.06-.28.14-.31,0-.32-.23s.13-.44-.24-.43c0-.09,0-.17,0-.26q0-9.17,0-18.34a.4.4,0,0,1,.1-.34c.07.21.13.36.19.52l1.8,5.37-.43.27a.51.51,0,0,0-.15.78c.36.34.36.78.5,1.17.06.18.12.36.33.31s.51.12.71.29a1.2,1.2,0,0,0,0,.25c.71,2.14,1.44,4.27,2.14,6.41a11.11,11.11,0,0,1,.6,2c-.21.26-.29.6-.06.8s.42.57.81.58a16.88,16.88,0,0,0,1.67,4.42,15.56,15.56,0,0,0,.49,1.62,15.94,15.94,0,0,0,1,2.41c0,.09-.08.17.06.21s.13-.1.15-.18a7.23,7.23,0,0,0,0-1.36"/><path d="M251.55,261.62a.13.13,0,0,0,0-.19v-.68a4.22,4.22,0,0,1,.57-1c.11-.1.05-.18-.07-.21a.52.52,0,0,0-.37,0c-.43.19-.64,0-.71-.42a.57.57,0,0,0-.07-.15,6.45,6.45,0,0,0-.25-1.57c-.34-.95-.62-1.92-.92-2.88.11-.06.18-.15.13-.28a4.16,4.16,0,0,0-.43-1.1c-.86-2.55-1.66-5.13-2.52-7.68-.49-1.45-.95-2.91-1.4-4.36-.82-2.59-1.68-5.16-2.53-7.74a2.32,2.32,0,0,0-.46-1.35,1.12,1.12,0,0,1-.35-1c0-.3-.1-.46-.39-.48a13.57,13.57,0,0,0-3.32,0c-.41,0-.58.11-.45.53l0,.16c-.11.3-.06.67-.46.81,0,0,0,.13-.07.2-.17.45-.26.93-.41,1.39-.43,1.32-.91,2.62-1.35,3.93q-2.11,6.18-4.21,12.35a18.09,18.09,0,0,1-.78,2.18c-.21,0-.2.16-.24.29s-.15.52-.23.77c0,.1,0,.26-.21.18-.44-.2-.35.13-.29.33a1.18,1.18,0,0,0,.47.75c-.43,1.43-1.19,2.76-1.2,4.3-.14.38-.34.65-.8.41a.29.29,0,0,0-.17,0c-.2,0-.33.05-.14.31a1.85,1.85,0,0,1,.44,1.34c-.06.45-.07.91-.09,1.37,0,.16-.06.34.15.48a20.58,20.58,0,0,0,1.57-4,17.87,17.87,0,0,0,1.74-4.4.5.5,0,0,0,.41-.36c.13-.34.15-.71.53-1a.54.54,0,0,0,.08-.76,6.59,6.59,0,0,1,.47-1.51q2.47-7.16,5-14.32c0-.12,0-.29.26-.33,0,.79,0,1.56,0,2.33-.06,2,0,4-.08,6.06-.08,3.29-.08,6.59-.11,9.88,0,.15,0,.32.07.45q0,.76,0,1.51a.16.16,0,0,0,.16.2c.42,0,.39.25.38.53,0,1.38,0,2.77,0,4.15a2.84,2.84,0,0,0,.39,1.54,1.15,1.15,0,0,0-.08.46,15.52,15.52,0,0,0,.57,5.33c.05.18,0,.41.17.54a.25.25,0,0,0,.15-.2c.19-.86.44-1.72.57-2.59a14,14,0,0,0,0-3.53,2.64,2.64,0,0,0,.4-1.41c0-1.46,0-2.92,0-4.38,0-.17-.07-.39.2-.44.62,0,.64,0,.73-.56,0-.24.14-.2.29-.12s.26.1.35,0a.34.34,0,0,0,0-.37c-.08-.14-.23-.11-.34-.06-.28.14-.31,0-.32-.23s.13-.44-.24-.43c0-.09,0-.17,0-.26q0-9.17,0-18.34a.4.4,0,0,1,.1-.34c.07.21.13.36.19.52l1.8,5.37-.43.27a.51.51,0,0,0-.15.78c.36.34.36.78.5,1.17.06.18.12.36.33.31s.51.12.71.29a1.2,1.2,0,0,0,0,.25c.71,2.14,1.44,4.27,2.14,6.41a11.11,11.11,0,0,1,.6,2c-.21.26-.29.6-.06.8s.42.57.81.58a16.88,16.88,0,0,0,1.67,4.42,15.56,15.56,0,0,0,.49,1.62,15.94,15.94,0,0,0,1,2.41c0,.09-.08.17.06.21s.13-.1.15-.18A7.23,7.23,0,0,0,251.55,261.62Z" style="fill:none;stroke:#000;stroke-miterlimit:10;stroke-width:0.453000009059906px"/><path d="M238.37,233.63a4.06,4.06,0,0,0,.11-1.1c0-.31-.08-.43-.39-.5s-.37.16-.44.36l-.26.75c0,.12-.05.22.11.25s.27.25.28.45l-.35,1c-.39,1.06-.78,2.12-1.18,3.17-.09.24,0,.31.22.34s.37-.12.44-.33c.3-.88.62-1.76.92-2.65a9.16,9.16,0,0,0,.55-1.7m1.53,8c-.09,0-.19,0-.28.07.16.21.53.09.65.4a3.52,3.52,0,0,0,0-.65c-.05-.27-.35-.53-.12-.84a.12.12,0,0,0-.1-.18c-.12,0-.12.09-.12.17a6.73,6.73,0,0,0,0,1Zm3.81-.3-1.79-5.22-.19-.51a.38.38,0,0,0-.1.33q0,8.92,0,17.83c0,.08,0,.17,0,.25v1.38a.61.61,0,0,1-.05-.1c0-.26,0-.53,0-.79,0-.51-.07-.61-.58-.56-.69.07-1.38,0-2.08,0a1.28,1.28,0,0,0-.66.09c-.11-.13-.07-.29-.07-.44,0-3.2,0-6.41.12-9.61,0-2,0-3.93.08-5.89,0-.75.06-1.49,0-2.26-.22,0-.22.2-.26.32q-2.47,7-4.93,13.92a6.32,6.32,0,0,0-.46,1.47,3.23,3.23,0,0,1-1.81.22c-.18,0-.22-.15-.21-.3a17.2,17.2,0,0,0,.78-2.12q2.1-6,4.18-12c.44-1.28.92-2.54,1.35-3.83.15-.45.23-.91.4-1.35,0-.07,0-.18.07-.19.39-.13.35-.5.45-.79.24,0,.33,0,.17.26,0,.06-.18.08-.1.18s.15.13.22.08c.37-.29.27,0,.28.2s0,.41,0,.62,0,.25.11.24c.51-.05.44.33.5.61,0,1.25,0,2.51-.07,3.76,0,.33.08.51.44.47s.35.06.34.3c-.07.06-.1.13,0,.2s.1.07.14,0,0-.15,0-.21c.08-.34.37-.29.62-.3s.33-.07.33-.31c0-1.38,0-2.76-.11-4.14a.28.28,0,0,0,.06-.06c.1-.2.25-.34.5-.3s.21.29.22.47,0,.29.18.32l.9,2.7c.2.59.41,1.18.6,1.78.07.21.19.31.4.25s.13-.27.1-.41a2.26,2.26,0,0,0-.1-.32l-1.37-4.08c.43-.11.29-.43.24-.73.19.13.1.43.37.45.84,2.51,1.71,5,2.52,7.53.46,1.42.91,2.84,1.4,4.24.85,2.48,1.65,5,2.51,7.47-.16.14-.39.28-.57.23-.45-.13-.92-.09-1.36-.24a10.59,10.59,0,0,0-.59-1.95c-.7-2.08-1.42-4.16-2.13-6.23a1.15,1.15,0,0,1,0-.24c.32.17.59-.11.89-.11s.29-.13.21-.35a16.86,16.86,0,0,0-.7-1.81.73.73,0,0,0-.38-.39,2.18,2.18,0,0,0-1-.08"/><path d="M238.37,233.63a4.06,4.06,0,0,0,.11-1.1c0-.31-.08-.43-.39-.5s-.37.16-.44.36l-.26.75c0,.12-.05.22.11.25s.27.25.28.45l-.35,1c-.39,1.06-.78,2.12-1.18,3.17-.09.24,0,.31.22.34s.37-.12.44-.33c.3-.88.62-1.76.92-2.65A9.16,9.16,0,0,0,238.37,233.63Zm1.53,8c-.09,0-.19,0-.28.07.16.21.53.09.65.4a3.52,3.52,0,0,0,0-.65c-.05-.27-.35-.53-.12-.84a.12.12,0,0,0-.1-.18c-.12,0-.12.09-.12.17a6.73,6.73,0,0,0,0,1Zm3.81-.3-1.79-5.22-.19-.51a.38.38,0,0,0-.1.33q0,8.92,0,17.83c0,.08,0,.17,0,.25v1.38a.61.61,0,0,1-.05-.1c0-.26,0-.53,0-.79,0-.51-.07-.61-.58-.56-.69.07-1.38,0-2.08,0a1.28,1.28,0,0,0-.66.09c-.11-.13-.07-.29-.07-.44,0-3.2,0-6.41.12-9.61,0-2,0-3.93.08-5.89,0-.75.06-1.49,0-2.26-.22,0-.22.2-.26.32q-2.47,7-4.93,13.92a6.32,6.32,0,0,0-.46,1.47,3.23,3.23,0,0,1-1.81.22c-.18,0-.22-.15-.21-.3a17.2,17.2,0,0,0,.78-2.12q2.1-6,4.18-12c.44-1.28.92-2.54,1.35-3.83.15-.45.23-.91.4-1.35,0-.07,0-.18.07-.19.39-.13.35-.5.45-.79.24,0,.33,0,.17.26,0,.06-.18.08-.1.18s.15.13.22.08c.37-.29.27,0,.28.2s0,.41,0,.62,0,.25.11.24c.51-.05.44.33.5.61,0,1.25,0,2.51-.07,3.76,0,.33.08.51.44.47s.35.06.34.3c-.07.06-.1.13,0,.2s.1.07.14,0,0-.15,0-.21c.08-.34.37-.29.62-.3s.33-.07.33-.31c0-1.38,0-2.76-.11-4.14a.28.28,0,0,0,.06-.06c.1-.2.25-.34.5-.3s.21.29.22.47,0,.29.18.32l.9,2.7c.2.59.41,1.18.6,1.78.07.21.19.31.4.25s.13-.27.1-.41a2.26,2.26,0,0,0-.1-.32l-1.37-4.08c.43-.11.29-.43.24-.73.19.13.1.43.37.45.84,2.51,1.71,5,2.52,7.53.46,1.42.91,2.84,1.4,4.24.85,2.48,1.65,5,2.51,7.47-.16.14-.39.28-.57.23-.45-.13-.92-.09-1.36-.24a10.59,10.59,0,0,0-.59-1.95c-.7-2.08-1.42-4.16-2.13-6.23a1.15,1.15,0,0,1,0-.24c.32.17.59-.11.89-.11s.29-.13.21-.35a16.86,16.86,0,0,0-.7-1.81.73.73,0,0,0-.38-.39A2.18,2.18,0,0,0,243.71,241.36Z" style="fill:none;stroke:#000;stroke-miterlimit:10;stroke-width:0.453000009059906px"/><path d="M241.06,256.71c-.25,0-.18.26-.18.42,0,1.37,0,2.75,0,4.12a2.58,2.58,0,0,1-.36,1.33,1.16,1.16,0,0,0-1.27,0,2.78,2.78,0,0,1-.35-1.45c0-1.3,0-2.6,0-3.9,0-.26,0-.52-.34-.5a.15.15,0,0,1-.14-.19,2,2,0,0,1,.57,0,3.41,3.41,0,0,0,1.21.11c.25,0,.49-.11.74-.15.07,0,.17,0,.2.06s-.07.09-.11.14"/><path d="M241.06,256.71c-.25,0-.18.26-.18.42,0,1.37,0,2.75,0,4.12a2.58,2.58,0,0,1-.36,1.33,1.16,1.16,0,0,0-1.27,0,2.78,2.78,0,0,1-.35-1.45c0-1.3,0-2.6,0-3.9,0-.26,0-.52-.34-.5a.15.15,0,0,1-.14-.19,2,2,0,0,1,.57,0,3.41,3.41,0,0,0,1.21.11c.25,0,.49-.11.74-.15.07,0,.17,0,.2.06S241.1,256.66,241.06,256.71Z" style="fill:none;stroke:#000;stroke-miterlimit:10;stroke-width:0.453000009059906px"/><path d="M242.37,232.05h.06a.5.5,0,0,0,0-.14s-.08,0-.07,0a.46.46,0,0,0,.05.14m.42.48c-.25,0-.17-.23-.34-.33,0,.22.17.46-.22.54a1,1,0,0,0-.49.06c-.18,0-.16-.14-.17-.24s.05-.31-.21-.35a.43.43,0,0,0-.46.22l-.06,0a4.13,4.13,0,0,1-1.18,0,.23.23,0,0,0-.32.15c-.05-.21,0-.49-.46-.45-.1,0-.1-.1-.1-.18s0-.31,0-.46.09-.37-.26-.15c-.06,0-.16,0-.2-.06s.06-.09.09-.13.07-.22-.16-.2l0-.11c.38,0,.35-.2.41-.38a16,16,0,0,1,3.06,0c.26,0,.37.13.35.35a.72.72,0,0,0,.33.7,1.45,1.45,0,0,1,.42,1"/><path d="M242.37,232.05h.06a.5.5,0,0,0,0-.14s-.08,0-.07,0A.46.46,0,0,0,242.37,232.05Zm.42.48c-.25,0-.17-.23-.34-.33,0,.22.17.46-.22.54a1,1,0,0,0-.49.06c-.18,0-.16-.14-.17-.24s.05-.31-.21-.35a.43.43,0,0,0-.46.22l-.06,0a4.13,4.13,0,0,1-1.18,0,.23.23,0,0,0-.32.15c-.05-.21,0-.49-.46-.45-.1,0-.1-.1-.1-.18s0-.31,0-.46.09-.37-.26-.15c-.06,0-.16,0-.2-.06s.06-.09.09-.13.07-.22-.16-.2l0-.11c.38,0,.35-.2.41-.38a16,16,0,0,1,3.06,0c.26,0,.37.13.35.35a.72.72,0,0,0,.33.7A1.45,1.45,0,0,1,242.78,232.53Z" style="fill:none;stroke:#000;stroke-miterlimit:10;stroke-width:0.453000009059906px"/><path d="M239.34,263a.92.92,0,0,1,1.12,0,15.91,15.91,0,0,1,0,3.35c-.1.83-.29,1.64-.45,2.46a.24.24,0,0,1-.12.19c-.16-.12-.1-.34-.14-.51a17.62,17.62,0,0,1-.45-5.06,1.28,1.28,0,0,1,.06-.44"/><path d="M239.34,263a.92.92,0,0,1,1.12,0,15.91,15.91,0,0,1,0,3.35c-.1.83-.29,1.64-.45,2.46a.24.24,0,0,1-.12.19c-.16-.12-.1-.34-.14-.51a17.62,17.62,0,0,1-.45-5.06A1.28,1.28,0,0,1,239.34,263Z" style="fill:none;stroke:#000;stroke-miterlimit:10;stroke-width:0.453000009059906px"/><path d="M241.16,256.11s.14,0,.12-.1-.13-.05-.21,0c-.26,0-.51.09-.78.11A5,5,0,0,1,239,256a3,3,0,0,0-.59,0c0-.34,0-.69,0-1a1.56,1.56,0,0,1,.62-.06c.65,0,1.3,0,1.95,0,.47,0,.53,0,.54.39,0,.19,0,.37,0,.56l0,.07v-1c.34,0,.21.18.22.29s0,.26.3.16a.27.27,0,0,1,.32,0,.18.18,0,0,1,0,.25.32.32,0,0,1-.33,0c-.14-.06-.23-.08-.27.08-.09.4-.11.41-.68.38"/><path d="M241.16,256.11s.14,0,.12-.1-.13-.05-.21,0c-.26,0-.51.09-.78.11A5,5,0,0,1,239,256a3,3,0,0,0-.59,0c0-.34,0-.69,0-1a1.56,1.56,0,0,1,.62-.06c.65,0,1.3,0,1.95,0,.47,0,.53,0,.54.39,0,.19,0,.37,0,.56l0,.07v-1c.34,0,.21.18.22.29s0,.26.3.16a.27.27,0,0,1,.32,0,.18.18,0,0,1,0,.25.32.32,0,0,1-.33,0c-.14-.06-.23-.08-.27.08C241.76,256.14,241.74,256.14,241.16,256.11Z" style="fill:none;stroke:#000;stroke-miterlimit:10;stroke-width:0.453000009059906px"/><path d="M250,258.87a15.67,15.67,0,0,1-1.43-4c.42,0,.83.38,1.25,0,.26.86.49,1.74.78,2.59a6.14,6.14,0,0,1,.22,1.41.27.27,0,0,1-.39.13c-.14-.07-.29-.11-.44-.16"/><path d="M250,258.87a15.67,15.67,0,0,1-1.43-4c.42,0,.83.38,1.25,0,.26.86.49,1.74.78,2.59a6.14,6.14,0,0,1,.22,1.41.27.27,0,0,1-.39.13C250.32,259,250.17,258.92,250,258.87Z" style="fill:none;stroke:#000;stroke-miterlimit:10;stroke-width:0.453000009059906px"/><path d="M229.06,258.65a15.18,15.18,0,0,1,1-4,7,7,0,0,0,1.29-.15,17.4,17.4,0,0,1-1.48,4.06.69.69,0,0,0-.44.1.29.29,0,0,1-.39,0"/><path d="M229.06,258.65a15.18,15.18,0,0,1,1-4,7,7,0,0,0,1.29-.15,17.4,17.4,0,0,1-1.48,4.06.69.69,0,0,0-.44.1A.29.29,0,0,1,229.06,258.65Z" style="fill:none;stroke:#000;stroke-miterlimit:10;stroke-width:0.453000009059906px"/><path d="M243.89,241.75a1.88,1.88,0,0,1,.87.08.65.65,0,0,1,.34.35,15.26,15.26,0,0,1,.62,1.65c.07.2.07.32-.18.32s-.5.25-.79.1-.35-.32-.63-.26-.24-.12-.29-.28c-.13-.35-.13-.74-.45-1a.45.45,0,0,1,.14-.69l.38-.23"/><path d="M243.89,241.75a1.88,1.88,0,0,1,.87.08.65.65,0,0,1,.34.35,15.26,15.26,0,0,1,.62,1.65c.07.2.07.32-.18.32s-.5.25-.79.1-.35-.32-.63-.26-.24-.12-.29-.28c-.13-.35-.13-.74-.45-1a.45.45,0,0,1,.14-.69Z" style="fill:none;stroke:#000;stroke-miterlimit:10;stroke-width:0.453000009059906px"/><path d="M231.58,254.15a8.36,8.36,0,0,1-1.36.14,1,1,0,0,1-.43-.64c-.05-.16-.13-.44.26-.28.15.06.16-.07.19-.15s.13-.44.21-.66,0-.26.22-.24c0,.13,0,.27.19.26a3,3,0,0,0,1.64-.2.44.44,0,0,1-.07.65c-.33.21-.36.53-.47.81a.45.45,0,0,1-.37.3"/><path d="M231.58,254.15a8.36,8.36,0,0,1-1.36.14,1,1,0,0,1-.43-.64c-.05-.16-.13-.44.26-.28.15.06.16-.07.19-.15s.13-.44.21-.66,0-.26.22-.24c0,.13,0,.27.19.26a3,3,0,0,0,1.64-.2.44.44,0,0,1-.07.65c-.33.21-.36.53-.47.81A.45.45,0,0,1,231.58,254.15Z" style="fill:none;stroke:#000;stroke-miterlimit:10;stroke-width:0.453000009059906px"/><path d="M250.3,259.42c.14.05.28.09.42.16a.26.26,0,0,0,.38-.12.47.47,0,0,1,.06.13c.05.38.22.53.58.36a.4.4,0,0,1,.31,0c.09,0,.14.1.05.19a3.8,3.8,0,0,0-.47.86.1.1,0,0,0,0,.16c0,.15,0,.29,0,.44a.1.1,0,0,0,0,.17,6.71,6.71,0,0,1,0,1.19c0,.07,0,.2-.12.16a.16.16,0,0,0-.05-.18,20.28,20.28,0,0,1-1.22-3.53"/><path d="M250.3,259.42c.14.05.28.09.42.16a.26.26,0,0,0,.38-.12.47.47,0,0,1,.06.13c.05.38.22.53.58.36a.4.4,0,0,1,.31,0c.09,0,.14.1.05.19a3.8,3.8,0,0,0-.47.86.1.1,0,0,0,0,.16c0,.15,0,.29,0,.44a.1.1,0,0,0,0,.17,6.71,6.71,0,0,1,0,1.19c0,.07,0,.2-.12.16a.16.16,0,0,0-.05-.18,20.28,20.28,0,0,1-1.22-3.53Z" style="fill:none;stroke:#000;stroke-miterlimit:10;stroke-width:0.453000009059906px"/><path d="M228.83,259.12a.28.28,0,0,0,.38,0,.69.69,0,0,1,.42-.09,18.33,18.33,0,0,1-1.29,3.46c-.18-.12-.13-.28-.13-.42,0-.4,0-.79.07-1.18a1.66,1.66,0,0,0-.36-1.16c-.15-.23,0-.24.11-.27a.24.24,0,0,1,.14,0c.38.2.54,0,.65-.36"/><path d="M228.83,259.12a.28.28,0,0,0,.38,0,.69.69,0,0,1,.42-.09,18.33,18.33,0,0,1-1.29,3.46c-.18-.12-.13-.28-.13-.42,0-.4,0-.79.07-1.18a1.66,1.66,0,0,0-.36-1.16c-.15-.23,0-.24.11-.27a.24.24,0,0,1,.14,0C228.55,259.68,228.71,259.45,228.83,259.12Z" style="fill:none;stroke:#000;stroke-miterlimit:10;stroke-width:0.453000009059906px"/><path d="M249.69,254.44c-.43.3-.86,0-1.28,0s-.5-.27-.71-.43-.13-.4.05-.59c.39.11.8.08,1.19.18a.67.67,0,0,0,.5-.17,2.77,2.77,0,0,1,.37.81c0,.1,0,.16-.12.2"/><path d="M249.69,254.44c-.43.3-.86,0-1.28,0s-.5-.27-.71-.43-.13-.4.05-.59c.39.11.8.08,1.19.18a.67.67,0,0,0,.5-.17,2.77,2.77,0,0,1,.37.81C249.85,254.33,249.79,254.39,249.69,254.44Z" style="fill:none;stroke:#000;stroke-miterlimit:10;stroke-width:0.453000009059906px"/><path d="M238.34,230.5c-.05.21,0,.49-.32.45-.09-.35,0-.49.32-.45"/><path d="M238.34,230.5c-.05.21,0,.49-.32.45C237.93,230.59,238,230.46,238.34,230.5Z" style="fill:none;stroke:#000;stroke-miterlimit:10;stroke-width:0.453000009059906px"/><path d="M251.59,261.5c0,.1,0,.2,0,.31v-.31"/><path d="M251.59,261.5c0,.1,0,.2,0,.31Z" style="fill:none;stroke:#000;stroke-miterlimit:10;stroke-width:0.453000009059906px"/><path d="M251.34,262.6a.69.69,0,0,1,.1.56c-.23-.09-.16-.33-.1-.56"/><path d="M251.34,262.6a.69.69,0,0,1,.1.56C251.22,263.08,251.28,262.84,251.34,262.6Z" style="fill:none;stroke:#000;stroke-miterlimit:10;stroke-width:0.453000009059906px"/><path d="M251.53,261.21c0-.25,0-.52,0-.79,0,.27,0,.53,0,.79"/><path d="M251.53,261.21c0-.25,0-.52,0-.79C251.53,260.68,251.53,260.95,251.53,261.21Z" style="fill:none;stroke:#000;stroke-miterlimit:10;stroke-width:0.453000009059906px"/><path d="M239.36,233.5c0-.19.15-.26.28-.2.35.16.7,0,1,0,.07,1.33.09,2.65.09,4,0,.24-.09.29-.27.3s-.44,0-.5.29h-.06c0-.23-.09-.31-.27-.29s-.37-.13-.36-.45c0-1.21,0-2.41.06-3.62"/><path d="M239.36,233.5c0-.19.15-.26.28-.2.35.16.7,0,1,0,.07,1.33.09,2.65.09,4,0,.24-.09.29-.27.3s-.44,0-.5.29h-.06c0-.23-.09-.31-.27-.29s-.37-.13-.36-.45C239.34,235.91,239.35,234.71,239.36,233.5Z" style="fill:none;stroke:#000;stroke-miterlimit:10;stroke-width:0.453000009059906px"/><path d="M238.15,233.72a9.73,9.73,0,0,1-.47,1.64c-.25.85-.52,1.69-.78,2.54-.06.21-.14.35-.38.32s-.26-.09-.18-.32c.34-1,.67-2,1-3l.3-.93c.11-.24.27-.33.5-.2"/><path d="M238.15,233.72a9.73,9.73,0,0,1-.47,1.64c-.25.85-.52,1.69-.78,2.54-.06.21-.14.35-.38.32s-.26-.09-.18-.32c.34-1,.67-2,1-3l.3-.93C237.76,233.68,237.92,233.59,238.15,233.72Z" style="fill:none;stroke:#000;stroke-miterlimit:10;stroke-width:0.453000009059906px"/><path d="M242.06,233.74c.15,0,.28-.15.44-.08l1.12,3.93a2.36,2.36,0,0,1,.09.31c0,.14.13.33-.08.4s-.28,0-.33-.24c-.16-.57-.33-1.14-.49-1.72l-.74-2.6"/><path d="M242.06,233.74c.15,0,.28-.15.44-.08l1.12,3.93a2.36,2.36,0,0,1,.09.31c0,.14.13.33-.08.4s-.28,0-.33-.24c-.16-.57-.33-1.14-.49-1.72Z" style="fill:none;stroke:#000;stroke-miterlimit:10;stroke-width:0.453000009059906px"/><path d="M238.21,233a.29.29,0,0,0-.41.13c0-.12,0-.24-.19-.27s-.1-.08-.07-.16l.18-.46c.05-.13.07-.27.31-.22s.3.12.27.3a2.18,2.18,0,0,1-.08.67"/><path d="M238.21,233a.29.29,0,0,0-.41.13c0-.12,0-.24-.19-.27s-.1-.08-.07-.16l.18-.46c.05-.13.07-.27.31-.22s.3.12.27.3A2.18,2.18,0,0,1,238.21,233Z" style="fill:none;stroke:#000;stroke-miterlimit:10;stroke-width:0.453000009059906px"/><path d="M239.92,242.49c0-.64,0-1.28,0-1.93,0-.16,0-.33.05-.32s.06.22,0,.33a6.65,6.65,0,0,0,.05,1.56c0,.41,0,.78,0,1.2-.05-.56-.21-.33-.28-.73,0-.17.08-.08.12-.12,0,.17.07.25.13,0Z"/><path d="M239.92,242.49c0-.64,0-1.28,0-1.93,0-.16,0-.33.05-.32s.06.22,0,.33a6.65,6.65,0,0,0,.05,1.56c0,.41,0,.78,0,1.2-.05-.56-.21-.33-.28-.73,0-.17.08-.08.12-.12,0,.17.07.25.13,0Z" style="fill:none;stroke:#000;stroke-miterlimit:10;stroke-width:0.453000009059906px"/><path d="M239.93,238.37a0,0,0,0,1,.05,0,.4.4,0,0,0,0-.33c0-.08-.07,0-.1,0a.32.32,0,0,0,0,.31"/><path d="M239.93,238.37a0,0,0,0,1,.05,0,.4.4,0,0,0,0-.33c0-.08-.07,0-.1,0A.32.32,0,0,0,239.93,238.37Z" style="fill:none;stroke:#000;stroke-miterlimit:10;stroke-width:0.453000009059906px"/><path d="M242.47,232.88a2.79,2.79,0,0,1-.11-.5c0-.12.12-.16.15-.06a2.85,2.85,0,0,1,.08.5l-.13.05"/><path d="M242.47,232.88a2.79,2.79,0,0,1-.11-.5c0-.12.12-.16.15-.06a2.85,2.85,0,0,1,.08.5Z" style="fill:none;stroke:#000;stroke-miterlimit:10;stroke-width:0.453000009059906px"/><path d="M239.73,241.93h.69a2.86,2.86,0,0,1-.69,0h0"/><path d="M239.73,241.93h.69a2.86,2.86,0,0,1-.69,0Z" style="fill:none;stroke:#000;stroke-miterlimit:10;stroke-width:0.453000009059906px"/><path d="M241.73,229.4h0c0,.11,0,.22,0,.33s0,0,.05.06,0,0,0-.06,0-.18,0-.28a.18.18,0,0,0,0-.06m-.11-5.64a1.68,1.68,0,0,1,.51.91,1.88,1.88,0,0,1-.07,1.08,1.67,1.67,0,0,1-.4.65.42.42,0,0,0-.16.39.34.34,0,0,1,0,.12,1.35,1.35,0,0,1-.05.15.29.29,0,0,0,0,.09q0,1.24,0,2.48s0,.06,0,.08a.25.25,0,0,0,0-.09c0-.4,0-.8,0-1.2,0-.12,0-.12.12-.12s.21,0,.21-.2a.27.27,0,0,1,0-.09v.3c.14,0,.13.07.13.15,0,.41,0,.81,0,1.22,0,.07,0,.16-.12.12l0,0,.13,0V230h-.16l-.16,0-.08,0H238.9c-.1-.1-.24-.05-.36-.07v-.1l.13,0a.21.21,0,0,1-.14-.12s-.06,0-.09,0H238v-1.39h.67c0-.05,0-.09,0-.13a.47.47,0,0,1,.09-.37.07.07,0,0,0,0,0c0-.24,0-.47,0-.71a.21.21,0,0,0-.24.07.15.15,0,0,1-.14.06H238a.12.12,0,0,1-.14-.14c0-.18,0-.36,0-.54a.34.34,0,0,1,0-.11h0v.27l.39-.08c.07,0,.1-.06,0-.12a.3.3,0,0,1,0-.07c.13,0,.24,0,.33.08a.11.11,0,0,0,.08,0H239l-.19-.22a1.84,1.84,0,0,1-.4-.93,1.88,1.88,0,0,1,.21-1.18,1.67,1.67,0,0,1,.23-.33.31.31,0,0,0,.1-.26,1.64,1.64,0,0,1,0-.19H236.2v-.3c0-.27,0-.55,0-.82,0,0,0-.1.05-.11s0-.05,0-.08c0-.33,0-.66,0-1h.14c.07,0,.15,0,.19-.06h.48s.05,0,.06,0,.12.06.18.06h6.46s0,.07,0,.1c0,.67,0,1.35,0,2,0,.09,0,.12-.12.12h-2.06v.43l-.13,0v0a.12.12,0,0,1,.11.18h0Z"/><path d="M241.73,229.4h0c0,.11,0,.22,0,.33s0,0,.05.06,0,0,0-.06,0-.18,0-.28A.18.18,0,0,0,241.73,229.4Zm-.11-5.64a1.68,1.68,0,0,1,.51.91,1.88,1.88,0,0,1-.07,1.08,1.67,1.67,0,0,1-.4.65.42.42,0,0,0-.16.39.34.34,0,0,1,0,.12,1.35,1.35,0,0,1-.05.15.29.29,0,0,0,0,.09q0,1.24,0,2.48s0,.06,0,.08a.25.25,0,0,0,0-.09c0-.4,0-.8,0-1.2,0-.12,0-.12.12-.12s.21,0,.21-.2a.27.27,0,0,1,0-.09v.3c.14,0,.13.07.13.15,0,.41,0,.81,0,1.22,0,.07,0,.16-.12.12l0,0,.13,0V230h-.16l-.16,0-.08,0H238.9c-.1-.1-.24-.05-.36-.07v-.1l.13,0a.21.21,0,0,1-.14-.12s-.06,0-.09,0H238v-1.39h.67c0-.05,0-.09,0-.13a.47.47,0,0,1,.09-.37.07.07,0,0,0,0,0c0-.24,0-.47,0-.71a.21.21,0,0,0-.24.07.15.15,0,0,1-.14.06H238a.12.12,0,0,1-.14-.14c0-.18,0-.36,0-.54a.34.34,0,0,1,0-.11h0v.27l.39-.08c.07,0,.1-.06,0-.12a.3.3,0,0,1,0-.07c.13,0,.24,0,.33.08a.11.11,0,0,0,.08,0H239l-.19-.22a1.84,1.84,0,0,1-.4-.93,1.88,1.88,0,0,1,.21-1.18,1.67,1.67,0,0,1,.23-.33.31.31,0,0,0,.1-.26,1.64,1.64,0,0,1,0-.19H236.2v-.3c0-.27,0-.55,0-.82,0,0,0-.1.05-.11s0-.05,0-.08c0-.33,0-.66,0-1h.14c.07,0,.15,0,.19-.06h.48s.05,0,.06,0,.12.06.18.06h6.46s0,.07,0,.1c0,.67,0,1.35,0,2,0,.09,0,.12-.12.12h-2.06v.43l-.13,0v0a.12.12,0,0,1,.11.18h0Z" style="fill:none;stroke:#000;stroke-miterlimit:10;stroke-width:0.453000009059906px"/></g><rect x="62.18" y="27.01" width="31.65" height="31.65" transform="translate(-7.44 67.7) rotate(-45)" style="fill:#e37222"/><rect x="62.18" y="27.01" width="31.65" height="31.65" transform="translate(-7.44 67.7) rotate(-45)" style="fill:none;stroke:#e37222;stroke-width:3.3519999980926514px"/><rect x="391.18" y="27.01" width="31.65" height="31.65" transform="translate(88.92 300.34) rotate(-45)" style="fill:#e37222"/><rect x="391.18" y="27.01" width="31.65" height="31.65" transform="translate(88.92 300.34) rotate(-45)" style="fill:none;stroke:#e37222;stroke-width:3.3519999980926514px"/><line x1="44.38" y1="114.11" x2="438.43" y2="114.11" style="fill:none;stroke:#525861;stroke-width:5.076000213623047px;stroke-dasharray:15.166999816894531,10.092000007629395"/><polygon points="116.54 126.82 116.54 126.05 114.03 126.05 114.03 124.67 113.24 124.67 113.24 125.63 109.11 125.63 109.11 124.09 108.28 124.09 108.28 125.63 107.46 125.63 107.46 115.08 95.97 115.08 95.97 114.66 96.72 114.66 97.63 113.69 96.72 112.77 95.97 112.77 95.97 112.31 107.46 112.31 107.46 101.64 108.28 101.64 108.28 103.26 109.11 103.26 109.11 101.64 113.24 101.64 113.24 102.64 114.03 102.64 114.03 101.26 116.54 101.26 116.54 100.41 117.33 100.41 117.33 101.26 118.16 101.26 118.16 102.45 162.48 102.45 162.48 101.53 189.54 101.53 189.54 125.78 162.48 125.78 162.48 124.86 118.16 124.86 118.16 126.05 117.33 126.05 117.33 126.82 116.54 126.82"/><polygon points="116.54 126.82 116.54 126.05 114.03 126.05 114.03 124.67 113.24 124.67 113.24 125.63 109.11 125.63 109.11 124.09 108.28 124.09 108.28 125.63 107.46 125.63 107.46 115.08 95.97 115.08 95.97 114.66 96.72 114.66 97.63 113.69 96.72 112.77 95.97 112.77 95.97 112.31 107.46 112.31 107.46 101.64 108.28 101.64 108.28 103.26 109.11 103.26 109.11 101.64 113.24 101.64 113.24 102.64 114.03 102.64 114.03 101.26 116.54 101.26 116.54 100.41 117.33 100.41 117.33 101.26 118.16 101.26 118.16 102.45 162.48 102.45 162.48 101.53 189.54 101.53 189.54 125.78 162.48 125.78 162.48 124.86 118.16 124.86 118.16 126.05 117.33 126.05 117.33 126.82 116.54 126.82" style="fill:none;stroke:#000;stroke-miterlimit:10;stroke-width:0.9819999933242798px"/><polygon points="107.46 125.63 107.46 115.08 95.97 115.08 95.97 114.66 96.72 114.66 97.63 113.69 96.72 112.77 95.97 112.77 95.97 112.31 107.46 112.31 107.46 101.64 108.28 101.64 108.28 103.26 109.11 103.26 109.11 101.64 113.24 101.64 113.24 102.65 114.03 102.65 114.03 101.26 116.54 101.26 116.54 100.41 117.33 100.41 117.33 101.26 118.16 101.26 118.16 102.45 162.48 102.45 162.48 101.53 189.54 101.53 189.54 125.78 162.48 125.78 162.48 124.86 118.16 124.86 118.16 126.05 117.33 126.05 117.33 126.82 116.54 126.82 116.54 126.05 114.03 126.05 114.03 124.67 113.24 124.67 113.24 125.63 109.11 125.63 109.11 124.09 108.28 124.09 108.28 125.63 107.46 125.63"/><polygon points="107.46 125.63 107.46 115.08 95.97 115.08 95.97 114.66 96.72 114.66 97.63 113.69 96.72 112.77 95.97 112.77 95.97 112.31 107.46 112.31 107.46 101.64 108.28 101.64 108.28 103.26 109.11 103.26 109.11 101.64 113.24 101.64 113.24 102.65 114.03 102.65 114.03 101.26 116.54 101.26 116.54 100.41 117.33 100.41 117.33 101.26 118.16 101.26 118.16 102.45 162.48 102.45 162.48 101.53 189.54 101.53 189.54 125.78 162.48 125.78 162.48 124.86 118.16 124.86 118.16 126.05 117.33 126.05 117.33 126.82 116.54 126.82 116.54 126.05 114.03 126.05 114.03 124.67 113.24 124.67 113.24 125.63 109.11 125.63 109.11 124.09 108.28 124.09 108.28 125.63 107.46 125.63" style="fill:none;stroke:#000;stroke-miterlimit:2.61299991607666;stroke-width:0.15299999713897705px"/><polygon points="108.32 120.82 108.32 115.08 116.5 115.08 116.5 118.85 114.03 118.85 114.03 120.24 113.2 120.24 113.2 119.24 109.11 119.24 109.11 120.82 108.32 120.82"/><polygon points="108.32 120.82 108.32 115.08 116.5 115.08 116.5 118.85 114.03 118.85 114.03 120.24 113.2 120.24 113.2 119.24 109.11 119.24 109.11 120.82 108.32 120.82" style="fill:none;stroke:#000;stroke-miterlimit:10;stroke-width:0.9819999933242798px"/><polygon points="108.32 120.82 108.32 115.08 116.5 115.08 116.5 118.85 114.03 118.85 114.03 120.24 113.2 120.24 113.2 119.24 109.11 119.24 109.11 120.82 108.32 120.82"/><polygon points="108.32 120.82 108.32 115.08 116.5 115.08 116.5 118.85 114.03 118.85 114.03 120.24 113.2 120.24 113.2 119.24 109.11 119.24 109.11 120.82 108.32 120.82" style="fill:none;stroke:#000;stroke-miterlimit:2.61299991607666;stroke-width:0.15299999713897705px"/><polygon points="108.28 112.31 108.28 106.46 109.11 106.46 109.11 108.07 113.2 108.07 113.2 107.03 114.03 107.03 114.03 108.46 116.5 108.46 116.5 112.31 108.28 112.31"/><polygon points="108.28 112.31 108.28 106.46 109.11 106.46 109.11 108.07 113.2 108.07 113.2 107.03 114.03 107.03 114.03 108.46 116.5 108.46 116.5 112.31 108.28 112.31" style="fill:none;stroke:#000;stroke-miterlimit:10;stroke-width:0.9819999933242798px"/><polygon points="108.28 106.46 108.28 112.31 116.5 112.31 116.5 108.46 114.03 108.46 114.03 107.03 113.2 107.03 113.2 108.07 109.11 108.07 109.11 106.46 108.28 106.46"/><polygon points="108.28 106.46 108.28 112.31 116.5 112.31 116.5 108.46 114.03 108.46 114.03 107.03 113.2 107.03 113.2 108.07 109.11 108.07 109.11 106.46 108.28 106.46" style="fill:none;stroke:#000;stroke-miterlimit:2.61299991607666;stroke-width:0.15299999713897705px"/><polygon points="258.53 131.02 258.53 126.9 252.51 126.9 242.16 130.13 240.91 125.7 240.91 120.08 242.64 119.55 242.64 117.16 245.47 116.31 246.18 118.43 248.69 117.66 256.48 117.66 256.48 105.8 258.53 105.8 258.53 102.45 266.75 102.45 266.75 105.26 267.97 105.26 267.97 108.07 272.49 108.07 272.49 106.84 273.71 106.84 273.71 108.07 277.01 108.07 277.01 106.84 287.87 106.84 287.87 109.69 288.69 109.69 288.69 117.66 287.87 117.66 287.87 120.51 277.01 120.51 277.01 119.28 273.71 119.28 273.71 120.51 272.49 120.51 272.49 119.28 267.97 119.28 267.97 122.09 266.75 122.09 266.75 131.02 258.53 131.02"/><polygon points="258.53 131.02 258.53 126.9 252.51 126.9 242.16 130.13 240.91 125.7 240.91 120.08 242.64 119.55 242.64 117.16 245.47 116.31 246.18 118.43 248.69 117.66 256.48 117.66 256.48 105.8 258.53 105.8 258.53 102.45 266.75 102.45 266.75 105.26 267.97 105.26 267.97 108.07 272.49 108.07 272.49 106.84 273.71 106.84 273.71 108.07 277.01 108.07 277.01 106.84 287.87 106.84 287.87 109.69 288.69 109.69 288.69 117.66 287.87 117.66 287.87 120.51 277.01 120.51 277.01 119.28 273.71 119.28 273.71 120.51 272.49 120.51 272.49 119.28 267.97 119.28 267.97 122.09 266.75 122.09 266.75 131.02 258.53 131.02" style="fill:none;stroke:#000;stroke-miterlimit:10;stroke-width:0.9819999933242798px"/><polygon points="256.48 105.8 256.48 117.66 248.69 117.66 246.18 118.43 245.47 116.31 242.64 117.16 242.64 119.55 240.91 120.08 240.91 125.7 242.16 130.13 252.51 126.9 258.53 126.9 258.53 131.02 266.75 131.02 266.75 122.09 267.97 122.09 267.97 119.28 272.49 119.28 272.49 120.51 273.71 120.51 273.71 119.28 277.01 119.28 277.01 120.51 287.87 120.51 287.87 117.66 288.69 117.66 288.69 109.69 287.87 109.69 287.87 106.84 277.01 106.84 277.01 108.07 273.71 108.07 273.71 106.84 272.49 106.84 272.49 108.07 267.97 108.07 267.97 105.26 266.75 105.26 266.75 102.45 258.53 102.45 258.53 105.8 256.48 105.8"/><polygon points="256.48 105.8 256.48 117.66 248.69 117.66 246.18 118.43 245.47 116.31 242.64 117.16 242.64 119.55 240.91 120.08 240.91 125.7 242.16 130.13 252.51 126.9 258.53 126.9 258.53 131.02 266.75 131.02 266.75 122.09 267.97 122.09 267.97 119.28 272.49 119.28 272.49 120.51 273.71 120.51 273.71 119.28 277.01 119.28 277.01 120.51 287.87 120.51 287.87 117.66 288.69 117.66 288.69 109.69 287.87 109.69 287.87 106.84 277.01 106.84 277.01 108.07 273.71 108.07 273.71 106.84 272.49 106.84 272.49 108.07 267.97 108.07 267.97 105.26 266.75 105.26 266.75 102.45 258.53 102.45 258.53 105.8 256.48 105.8" style="fill:none;stroke:#000;stroke-miterlimit:2.61299991607666;stroke-width:0.15299999713897705px"/><rect x="191.19" y="102.03" width="49.71" height="7.39"/><rect x="191.19" y="102.03" width="49.71" height="7.39" style="fill:none;stroke:#000;stroke-miterlimit:10;stroke-width:0.9819999933242798px"/><rect x="191.19" y="102.03" width="49.71" height="7.39"/><rect x="191.19" y="102.03" width="49.71" height="7.39" style="fill:none;stroke:#000;stroke-miterlimit:2.61299991607666;stroke-width:0.15299999713897705px"/><rect x="191.19" y="111.08" width="49.71" height="5.2"/><rect x="191.19" y="111.08" width="49.71" height="5.2" style="fill:none;stroke:#000;stroke-miterlimit:10;stroke-width:0.9819999933242798px"/><rect x="191.19" y="111.08" width="49.71" height="5.2"/><rect x="191.19" y="111.08" width="49.71" height="5.2" style="fill:none;stroke:#000;stroke-miterlimit:2.61299991607666;stroke-width:0.15299999713897705px"/><rect x="191.2" y="117.92" width="48.05" height="7.43"/><rect x="191.2" y="117.92" width="48.05" height="7.43" style="fill:none;stroke:#000;stroke-miterlimit:10;stroke-width:0.9819999933242798px"/><rect x="191.2" y="117.92" width="48.05" height="7.43"/><rect x="191.2" y="117.92" width="48.05" height="7.43" style="fill:none;stroke:#000;stroke-miterlimit:2.61299991607666;stroke-width:0.15299999713897705px"/><polygon points="268.36 128.94 268.36 123.7 269.62 123.7 269.62 120.89 270.88 120.89 270.88 122.12 281.93 122.12 281.93 126.94 288.89 126.94 288.89 122.12 289.56 122.12 289.56 119.28 290.34 119.28 290.34 108.03 289.56 108.03 289.56 105.22 288.89 105.22 288.89 100.37 281.93 100.37 281.93 105.22 270.88 105.22 270.88 106.42 269.62 106.42 269.62 103.61 268.36 103.61 268.36 100.8 257.31 100.8 257.31 104.15 254.83 104.15 254.83 116.08 252.86 116.08 252.86 100.37 245.86 100.37 245.86 114.46 242.6 115.46 242.6 100.37 240.08 100.37 240.08 98.41 293.85 98.41 293.85 100.37 292.19 100.37 292.19 126.94 293.85 126.94 293.85 128.94 268.36 128.94"/><polygon points="268.36 128.94 268.36 123.7 269.62 123.7 269.62 120.89 270.88 120.89 270.88 122.12 281.93 122.12 281.93 126.94 288.89 126.94 288.89 122.12 289.56 122.12 289.56 119.28 290.34 119.28 290.34 108.03 289.56 108.03 289.56 105.22 288.89 105.22 288.89 100.37 281.93 100.37 281.93 105.22 270.88 105.22 270.88 106.42 269.62 106.42 269.62 103.61 268.36 103.61 268.36 100.8 257.31 100.8 257.31 104.15 254.83 104.15 254.83 116.08 252.86 116.08 252.86 100.37 245.86 100.37 245.86 114.46 242.6 115.46 242.6 100.37 240.08 100.37 240.08 98.41 293.85 98.41 293.85 100.37 292.19 100.37 292.19 126.94 293.85 126.94 293.85 128.94 268.36 128.94" style="fill:none;stroke:#000;stroke-miterlimit:10;stroke-width:0.9819999933242798px"/><polygon points="268.36 128.94 293.85 128.94 293.85 126.94 292.19 126.94 292.19 100.38 293.85 100.38 293.85 98.41 240.08 98.41 240.08 100.38 242.6 100.38 242.6 115.46 245.86 114.46 245.86 100.38 252.86 100.38 252.86 116.08 254.83 116.08 254.83 104.15 257.31 104.15 257.31 100.8 268.36 100.8 268.36 103.61 269.62 103.61 269.62 106.42 270.88 106.42 270.88 105.22 281.93 105.22 281.93 100.38 288.89 100.38 288.89 105.22 289.56 105.22 289.56 108.03 290.34 108.03 290.34 119.28 289.56 119.28 289.56 122.13 288.89 122.13 288.89 126.94 281.93 126.94 281.93 122.13 270.88 122.13 270.88 120.89 269.62 120.89 269.62 123.7 268.36 123.7 268.36 128.94"/><polygon points="268.36 128.94 293.85 128.94 293.85 126.94 292.19 126.94 292.19 100.38 293.85 100.38 293.85 98.41 240.08 98.41 240.08 100.38 242.6 100.38 242.6 115.46 245.86 114.46 245.86 100.38 252.86 100.38 252.86 116.08 254.83 116.08 254.83 104.15 257.31 104.15 257.31 100.8 268.36 100.8 268.36 103.61 269.62 103.61 269.62 106.42 270.88 106.42 270.88 105.22 281.93 105.22 281.93 100.38 288.89 100.38 288.89 105.22 289.56 105.22 289.56 108.03 290.34 108.03 290.34 119.28 289.56 119.28 289.56 122.13 288.89 122.13 288.89 126.94 281.93 126.94 281.93 122.13 270.88 122.13 270.88 120.89 269.62 120.89 269.62 123.7 268.36 123.7 268.36 128.94" style="fill:none;stroke:#000;stroke-miterlimit:2.61299991607666;stroke-width:0.15299999713897705px"/><rect x="247.51" y="102.03" width="3.7" height="7.39"/><rect x="247.51" y="102.03" width="3.7" height="7.39" style="fill:none;stroke:#000;stroke-miterlimit:10;stroke-width:0.9819999933242798px"/><rect x="247.51" y="102.03" width="3.7" height="7.39"/><rect x="247.51" y="102.03" width="3.7" height="7.39" style="fill:none;stroke:#000;stroke-miterlimit:2.61299991607666;stroke-width:0.15299999713897705px"/><rect x="247.52" y="111.09" width="3.71" height="5.03"/><rect x="247.52" y="111.09" width="3.71" height="5.03" style="fill:none;stroke:#000;stroke-miterlimit:10;stroke-width:0.9819999933242798px"/><rect x="247.52" y="111.09" width="3.71" height="5.03"/><rect x="247.52" y="111.09" width="3.71" height="5.03" style="fill:none;stroke:#000;stroke-miterlimit:2.61299991607666;stroke-width:0.15299999713897705px"/><rect x="283.6" y="102.06" width="3.67" height="3.2"/><rect x="283.6" y="102.06" width="3.67" height="3.2" style="fill:none;stroke:#000;stroke-miterlimit:10;stroke-width:0.9819999933242798px"/><rect x="283.6" y="102.06" width="3.67" height="3.2"/><rect x="283.6" y="102.06" width="3.67" height="3.2" style="fill:none;stroke:#000;stroke-miterlimit:2.61299991607666;stroke-width:0.15299999713897705px"/><rect x="283.6" y="122.15" width="3.67" height="3.2"/><rect x="283.6" y="122.15" width="3.67" height="3.2" style="fill:none;stroke:#000;stroke-miterlimit:10;stroke-width:0.9819999933242798px"/><rect x="283.6" y="122.15" width="3.67" height="3.2"/><rect x="283.6" y="122.15" width="3.67" height="3.2" style="fill:none;stroke:#000;stroke-miterlimit:2.61299991607666;stroke-width:0.15299999713897705px"/><rect x="293.85" y="112.31" width="53.76" height="2.81"/><rect x="293.85" y="112.31" width="53.76" height="2.81" style="fill:none;stroke:#000;stroke-miterlimit:10;stroke-width:0.9819999933242798px"/><rect x="293.85" y="112.31" width="53.76" height="2.81"/><rect x="293.85" y="112.31" width="53.76" height="2.81" style="fill:none;stroke:#000;stroke-miterlimit:2.61299991607666;stroke-width:0.15299999713897705px"/><g style="clip-path:url(#clip-path-6)"><path d="M359.53,97.14V102H293.85v8.62h55.42v6H293.85v8.62h65.68v4.93l.35.73a5.65,5.65,0,0,0,3.5,1.19,5.93,5.93,0,0,0,3.54-1.19l.39-.73v-4.93h4V102h-4V97.14l-.39-.73a6,6,0,0,0-3.54-1.19,5.73,5.73,0,0,0-3.5,1.19Z"/><path d="M359.53,97.14V102H293.85v8.62h55.42v6H293.85v8.62h65.68v4.93l.35.73a5.65,5.65,0,0,0,3.5,1.19,5.93,5.93,0,0,0,3.54-1.19l.39-.73v-4.93h4V102h-4V97.14l-.39-.73a6,6,0,0,0-3.54-1.19,5.73,5.73,0,0,0-3.5,1.19Z" style="fill:none;stroke:#000;stroke-miterlimit:10;stroke-width:0.9819999933242798px"/><path d="M359.53,97.14V102H293.85v8.62h55.42v6H293.85v8.62h65.68v4.93l.35.73a5.65,5.65,0,0,0,3.5,1.19,5.93,5.93,0,0,0,3.54-1.19l.39-.73v-4.93h4V102h-4V97.14l-.39-.73a6,6,0,0,0-3.54-1.19,5.73,5.73,0,0,0-3.5,1.19Z"/><path d="M359.53,97.14V102H293.85v8.62h55.42v6H293.85v8.62h65.68v4.93l.35.73a5.65,5.65,0,0,0,3.5,1.19,5.93,5.93,0,0,0,3.54-1.19l.39-.73v-4.93h4V102h-4V97.14l-.39-.73a6,6,0,0,0-3.54-1.19,5.73,5.73,0,0,0-3.5,1.19Z" style="fill:none;stroke:#000;stroke-miterlimit:2.61299991607666;stroke-width:0.15299999713897705px"/></g><polygon points="118.12 120.01 118.12 118.81 117.33 118.81 117.33 108.46 118.12 108.46 118.12 107.23 162.48 107.23 162.48 120.01 118.12 120.01"/><polygon points="118.12 120.01 118.12 118.81 117.33 118.81 117.33 108.46 118.12 108.46 118.12 107.23 162.48 107.23 162.48 120.01 118.12 120.01" style="fill:none;stroke:#000;stroke-miterlimit:10;stroke-width:0.9819999933242798px"/><polygon points="162.48 107.23 118.12 107.23 118.12 108.46 117.33 108.46 117.33 118.81 118.12 118.81 118.12 120.01 162.48 120.01 162.48 107.23"/><polygon points="162.48 107.23 118.12 107.23 118.12 108.46 117.33 108.46 117.33 118.81 118.12 118.81 118.12 120.01 162.48 120.01 162.48 107.23" style="fill:none;stroke:#000;stroke-miterlimit:2.61299991607666;stroke-width:0.15299999713897705px"/><polygon points="119.77 118.05 119.77 117.25 118.96 117.25 118.96 110.09 119.77 110.09 119.77 108.89 160.85 108.89 160.85 118.05 119.77 118.05"/><polygon points="119.77 118.05 119.77 117.25 118.96 117.25 118.96 110.09 119.77 110.09 119.77 108.89 160.85 108.89 160.85 118.05 119.77 118.05" style="fill:none;stroke:#000;stroke-miterlimit:10;stroke-width:0.9819999933242798px"/><polygon points="119.77 108.89 119.77 110.09 118.96 110.09 118.96 117.25 119.77 117.25 119.77 118.05 160.85 118.05 160.85 108.89 119.77 108.89"/><polygon points="119.77 108.89 119.77 110.09 118.96 110.09 118.96 117.25 119.77 117.25 119.77 118.05 160.85 118.05 160.85 108.89 119.77 108.89" style="fill:none;stroke:#000;stroke-miterlimit:2.61299991607666;stroke-width:0.15299999713897705px"/><rect x="357.05" y="89.93" width="11.52" height="48.88"/><g style="clip-path:url(#clip-path)"><path d="M362.81,92c3.18,0,5.76-1.1,5.76-2.47s-2.58-2.47-5.76-2.47S357,88.16,357,89.52,359.63,92,362.81,92"/><path d="M362.81,140.95c3.18,0,5.76-1.1,5.76-2.47S366,136,362.81,136s-5.76,1.1-5.76,2.47,2.58,2.47,5.76,2.47"/></g><path d="M229.3,219.89l9.8.52m-12.49-3.51,9.8.52m-12.49-3.51,9.8.52m-12.49-3.51,9.8.52m-12.49-3.51,9.8.52m-12.49-3.51,9.8.52m-12.49-3.51,9.8.52M210.48,199l9.8.52M207.79,196l9.8.52M205.1,193l9.8.52M202.41,190l9.8.52M199.72,187l9.8.52M197,184l9.8.52M194.35,181l9.8.52M191.66,178l9.8.52M189,175l9.8.52M186.28,172l9.8.52M183.59,169l9.8.52M180.91,166l9.8.52m-12.49-3.51,9.8.52m-12.49-3.51,9.8.52m-12.49-3.51,9.8.52m-12.49-3.51,9.8.52m-12.49-3.51,9.8.52m-12.49-3.51,9.8.52m-12.49-3.51,9.8.52m-12.49-3.51,9.8.52m-12.49-3.51,9.8.52M154,136.14l9.8.52m-12.49-3.51,9.8.52m-12.49-3.51,9.8.52M146,127.16l9.8.52m-12.49-3.51,9.8.52m-12.49-3.51,9.8.52m-12.49-3.51,9.8.52M135.2,115.2l9.8.52m-12.49-3.51,9.8.52m-12.49-3.51,9.8.52m-12.49-3.51,9.8.52m-12.49-3.51,9.8.52m-12.49-3.51,9.8.52m-12.49-3.51,9.8.52m-12.49-3.51,9.8.52M113.7,91.27l9.8.52M111,88.28l9.8.52m-12.49-3.51,9.8.52M105.63,82.3l9.8.52m-12.49-3.51,9.8.52m-12.49-3.51,9.8.52M97.57,73.32l9.8.52M94.88,70.33l9.8.52M92.19,67.34l9.8.52M89.5,64.35l9.8.52M86.81,61.36l9.8.52M84.12,58.37l9.8.52M81.43,55.38l9.8.52M78.75,52.39l9.8.52" style="fill:none;stroke:red;stroke-width:1.496000051498413px"/><path d="M251.55,219.86l-9.81.51m12.52-3.52-9.81.51M257,213.84l-9.8.51m12.52-3.52-9.8.51m12.52-3.52-9.8.51m12.52-3.52-9.8.51m12.52-3.52-9.8.51m12.52-3.52-9.8.51m12.52-3.52-9.81.51M276,192.76l-9.8.51m12.52-3.52-9.8.51m12.52-3.52-9.8.51m12.52-3.52-9.8.51m12.52-3.52-9.8.51m12.52-3.52-9.8.51m12.52-3.52-9.8.51M295,171.68l-9.8.51m12.52-3.52-9.81.51m12.52-3.52-9.8.51m12.52-3.52-9.8.51m12.52-3.52-9.81.51m12.52-3.52-9.8.51m12.52-3.52-9.8.51M314,150.61l-9.81.51m12.52-3.52-9.8.51m12.52-3.52-9.8.51m12.52-3.52-9.81.51m12.52-3.52-9.8.51m12.52-3.52-9.8.51m12.52-3.52-9.8.51M333,129.53l-9.8.51m12.52-3.52-9.8.51m12.52-3.52-9.8.51m12.52-3.52-9.8.51m12.52-3.52L334,118m12.52-3.52-9.8.51m12.52-3.52-9.8.51M352,108.45l-9.81.51m12.52-3.52-9.8.51m12.52-3.52-9.8.51m12.52-3.52-9.81.51m12.52-3.52-9.8.51m12.52-3.52-9.8.51m12.52-3.52-9.81.51M371,87.38l-9.8.51m12.52-3.52-9.8.51m12.52-3.52-9.81.51m12.52-3.52-9.8.51m12.52-3.52-9.8.51m12.52-3.52-9.81.51m12.52-3.52-9.8.51M390,66.3l-9.8.51m12.52-3.52-9.8.51m12.52-3.52-9.8.51m12.52-3.52-9.8.51m12.52-3.52-9.8.51m12.52-3.52-9.8.51m12.52-3.52-9.81.51" style="fill:none;stroke:red;stroke-width:1.496000051498413px"/></g></svg>